<?xml version="1.0" encoding="utf-8"?>
<!-- Generator: Adobe Illustrator 26.3.1, SVG Export Plug-In . SVG Version: 6.00 Build 0)  -->
<svg version="1.1" id="Layer_1" xmlns="http://www.w3.org/2000/svg" xmlns:xlink="http://www.w3.org/1999/xlink" x="0px" y="0px"
	 viewBox="0 0 17 16" style="enable-background:new 0 0 17 16;" xml:space="preserve">
<style type="text/css">
	.st0{fill:url(#SVGID_1_);}
	.st1{fill:url(#SVGID_00000016780147976363030200000013978111010137862816_);}
	.st2{fill:url(#SVGID_00000077315936925466432200000010461040889027100062_);}
	.st3{fill:url(#SVGID_00000152946129536407976480000010674718665048442011_);}
	.st4{fill:url(#SVGID_00000006689973445068301320000014265301843331444151_);fill-opacity:0.84;}
	.st5{fill:url(#SVGID_00000176045681669812812330000002221440276930459308_);fill-opacity:0.84;}
	.st6{fill:url(#SVGID_00000008833668842603097090000008068961451858775725_);fill-opacity:0.84;}
	.st7{fill:url(#SVGID_00000128444233852871645720000011615291060382833591_);fill-opacity:0.84;}
	.st8{fill:url(#SVGID_00000121276447215400383880000017375436897980471686_);fill-opacity:0.84;}
	.st9{fill:url(#SVGID_00000078016612296674859800000005474770273803990405_);fill-opacity:0.84;}
	.st10{fill:url(#SVGID_00000063625415061332149590000000597614454594983579_);}
	.st11{fill:url(#SVGID_00000001636758937914514260000009819687873607348877_);}
	.st12{fill:url(#SVGID_00000062899682973375384820000015330915114739645840_);}
	.st13{fill:url(#SVGID_00000173869046338244767790000013698329410587785883_);}
	.st14{fill:url(#SVGID_00000057119593406918886290000002788238038330869678_);fill-opacity:0.84;}
	.st15{fill:url(#SVGID_00000082363308550278776380000016928830544181577647_);fill-opacity:0.84;}
	.st16{fill:url(#SVGID_00000142892551483325298270000014301189244412211605_);fill-opacity:0.84;}
</style>
<g>
	<g>
		<g>
			<g>
				<linearGradient id="SVGID_1_" gradientUnits="userSpaceOnUse" x1="7.1586" y1="3.2426" x2="7.9192" y2="3.2426">
					<stop  offset="2.237672e-07" style="stop-color:#083DB3"/>
					<stop  offset="0.2812" style="stop-color:#6289D7"/>
					<stop  offset="0.5233" style="stop-color:#669DD3"/>
					<stop  offset="0.7169" style="stop-color:#6289D7"/>
					<stop  offset="1" style="stop-color:#083DB3"/>
				</linearGradient>
				<path class="st0" d="M7.92,3.03c0-0.05-0.05-0.09-0.15-0.13H7.31c-0.1,0.03-0.15,0.08-0.15,0.13v0.43
					c0,0.05,0.05,0.09,0.15,0.13h0.46c0.1-0.03,0.15-0.08,0.15-0.13V3.03z"/>
				
					<linearGradient id="SVGID_00000132080086759479302030000016861962213432293536_" gradientUnits="userSpaceOnUse" x1="8.1892" y1="3.2426" x2="8.9498" y2="3.2426">
					<stop  offset="2.237672e-07" style="stop-color:#083DB3"/>
					<stop  offset="0.2812" style="stop-color:#6289D7"/>
					<stop  offset="0.5233" style="stop-color:#669DD3"/>
					<stop  offset="0.7169" style="stop-color:#6289D7"/>
					<stop  offset="1" style="stop-color:#083DB3"/>
				</linearGradient>
				<path style="fill:url(#SVGID_00000132080086759479302030000016861962213432293536_);" d="M8.95,3.03c0-0.05-0.05-0.09-0.15-0.13
					H8.34c-0.1,0.03-0.15,0.08-0.15,0.13v0.43c0,0.05,0.05,0.09,0.15,0.13H8.8c0.1-0.03,0.15-0.08,0.15-0.13V3.03z"/>
				
					<linearGradient id="SVGID_00000016033074941786363010000010482590780455243154_" gradientUnits="userSpaceOnUse" x1="7.1586" y1="4.1587" x2="7.9192" y2="4.1587">
					<stop  offset="2.237672e-07" style="stop-color:#083DB3"/>
					<stop  offset="0.2812" style="stop-color:#6289D7"/>
					<stop  offset="0.5233" style="stop-color:#669DD3"/>
					<stop  offset="0.7169" style="stop-color:#6289D7"/>
					<stop  offset="1" style="stop-color:#083DB3"/>
				</linearGradient>
				<path style="fill:url(#SVGID_00000016033074941786363010000010482590780455243154_);" d="M7.92,3.94c0-0.05-0.05-0.09-0.15-0.13
					H7.31c-0.1,0.03-0.15,0.08-0.15,0.13v0.43c0,0.05,0.05,0.09,0.15,0.13h0.46c0.1-0.03,0.15-0.08,0.15-0.13V3.94z"/>
				
					<linearGradient id="SVGID_00000072994825124062496420000000439026449502973077_" gradientUnits="userSpaceOnUse" x1="8.1892" y1="4.1587" x2="8.9498" y2="4.1587">
					<stop  offset="2.237672e-07" style="stop-color:#083DB3"/>
					<stop  offset="0.2812" style="stop-color:#6289D7"/>
					<stop  offset="0.5233" style="stop-color:#669DD3"/>
					<stop  offset="0.7169" style="stop-color:#6289D7"/>
					<stop  offset="1" style="stop-color:#083DB3"/>
				</linearGradient>
				<path style="fill:url(#SVGID_00000072994825124062496420000000439026449502973077_);" d="M8.95,3.94c0-0.05-0.05-0.09-0.15-0.13
					H8.34c-0.1,0.03-0.15,0.08-0.15,0.13v0.43c0,0.05,0.05,0.09,0.15,0.13H8.8c0.1-0.03,0.15-0.08,0.15-0.13V3.94z"/>
			</g>
		</g>
		
			<linearGradient id="SVGID_00000127039408070464404270000001224827472734407326_" gradientUnits="userSpaceOnUse" x1="2.8335" y1="7.6809" x2="15.1766" y2="3.0251">
			<stop  offset="0.0438" style="stop-color:#083DB3"/>
			<stop  offset="0.0959" style="stop-color:#0B41B7"/>
			<stop  offset="0.1492" style="stop-color:#154DC2"/>
			<stop  offset="0.2029" style="stop-color:#2662D4"/>
			<stop  offset="0.2427" style="stop-color:#3676E6"/>
			<stop  offset="0.3236" style="stop-color:#669DD3"/>
			<stop  offset="0.498" style="stop-color:#6289D7"/>
			<stop  offset="0.5986" style="stop-color:#083DB3"/>
			<stop  offset="0.7754" style="stop-color:#686969"/>
			<stop  offset="1" style="stop-color:#8C8C8C"/>
		</linearGradient>
		<path style="fill:url(#SVGID_00000127039408070464404270000001224827472734407326_);fill-opacity:0.84;" d="M3.26,1.81
			c0.5,0,1.01,0,1.51,0c0.07,0,0.12,0.02,0.16,0.09c0.42,0.73,0.84,1.45,1.26,2.18c0.63,1.09,1.27,2.18,1.9,3.26
			c0.26,0.44,0.52,0.89,0.78,1.33C8.93,8.76,8.94,8.76,9,8.67c0.55-0.78,1.1-1.57,1.65-2.35c0.43-0.6,0.85-1.21,1.28-1.81
			c0.07-0.1,0.14-0.2,0.21-0.3c0.03-0.05,0.07-0.07,0.13-0.07c0.17-0.01,0.35-0.02,0.52-0.02c0.09,0,0.15-0.03,0.2-0.11
			c0.47-0.77,0.94-1.53,1.41-2.29c0.04-0.06,0.02-0.1-0.01-0.15c-0.1-0.19-0.02-0.43,0.18-0.51c0.19-0.08,0.41,0,0.49,0.2
			c0.09,0.21-0.05,0.46-0.27,0.5c-0.08,0.01-0.13,0.05-0.18,0.12c-0.49,0.81-0.98,1.61-1.47,2.42c-0.04,0.07-0.09,0.1-0.16,0.1
			c-0.17,0.01-0.35,0.03-0.52,0.04c-0.06,0-0.1,0.02-0.13,0.07c-0.31,0.45-0.63,0.91-0.95,1.36c-0.37,0.53-0.73,1.05-1.1,1.58
			c-0.01,0.01-0.02,0.03-0.03,0.04c-0.01,0.02-0.04,0.04-0.02,0.07c0.01,0.03,0.05,0.02,0.07,0.02c0.37,0.01,0.37,0.01,0.59-0.29
			c0.58-0.8,1.16-1.59,1.73-2.39c0.06-0.09,0.13-0.13,0.25-0.13c0.26,0,0.52-0.03,0.78-0.04c0.07,0,0.13-0.04,0.17-0.1
			c0.29-0.44,0.57-0.89,0.86-1.33c0.03-0.05,0.02-0.08,0-0.13c-0.1-0.19-0.03-0.42,0.16-0.52c0.19-0.09,0.41-0.01,0.5,0.19
			c0.11,0.26-0.08,0.47-0.29,0.51c-0.07,0.01-0.12,0.04-0.16,0.1c-0.22,0.35-0.44,0.7-0.66,1.04c-0.09,0.14-0.18,0.27-0.26,0.41
			c-0.03,0.05-0.07,0.08-0.14,0.08c-0.28,0.02-0.56,0.04-0.84,0.05c-0.07,0-0.11,0.03-0.15,0.08c-0.26,0.37-0.53,0.74-0.79,1.11
			c-0.37,0.52-0.74,1.03-1.11,1.55C10.49,8.41,10.05,9.06,9.6,9.7c-0.52,0.75-1.04,1.5-1.56,2.25C8.02,11.96,8.01,11.98,8,12
			c-0.07,0.11-0.08,0.11-0.15,0c-0.42-0.68-0.84-1.37-1.26-2.05C5.92,8.85,5.24,7.76,4.57,6.66C3.99,5.72,3.41,4.78,2.83,3.83
			C2.46,3.22,2.08,2.61,1.71,2C1.67,1.95,1.6,1.89,1.63,1.83c0.03-0.05,0.11-0.02,0.17-0.02C2.29,1.81,2.78,1.81,3.26,1.81
			C3.26,1.81,3.26,1.81,3.26,1.81z M15.18,2.98c0-0.1-0.09-0.19-0.19-0.18c-0.1,0-0.17,0.08-0.17,0.18c0,0.1,0.09,0.19,0.19,0.19
			C15.1,3.16,15.18,3.08,15.18,2.98z M14.7,1.22c-0.11,0-0.18,0.07-0.18,0.17c0,0.1,0.09,0.19,0.2,0.19c0.09,0,0.17-0.08,0.16-0.17
			C14.88,1.28,14.82,1.22,14.7,1.22z"/>
		
			<linearGradient id="SVGID_00000011737617664987098190000014033799249857876637_" gradientUnits="userSpaceOnUse" x1="3.1763" y1="10.6684" x2="8.3442" y2="10.6684">
			<stop  offset="2.237672e-07" style="stop-color:#083DB3"/>
			<stop  offset="0.2812" style="stop-color:#6289D7"/>
			<stop  offset="0.5233" style="stop-color:#669DD3"/>
			<stop  offset="0.7169" style="stop-color:#6289D7"/>
			<stop  offset="1" style="stop-color:#083DB3"/>
		</linearGradient>
		<path style="fill:url(#SVGID_00000011737617664987098190000014033799249857876637_);fill-opacity:0.84;" d="M8.32,14.18
			c-0.04,0-0.08-0.02-0.12-0.04c-0.76-0.56-1.47-1.27-2.09-1.97c-0.5-0.57-0.88-1.21-1.11-1.93C4.79,9.57,4.67,8.88,4.57,8.19
			C4.55,8.08,4.56,7.97,4.5,7.87C4.09,7.21,3.68,6.55,3.26,5.89C3.25,5.87,3.24,5.83,3.2,5.84C3.17,5.85,3.18,5.89,3.18,5.91
			c0.04,0.41,0.07,0.82,0.11,1.23c0.07,0.65,0.16,1.31,0.28,1.96c0.12,0.68,0.27,1.35,0.52,1.99c0.33,0.83,0.86,1.54,1.47,2.18
			c0.78,0.82,1.66,1.53,2.58,2.18c0.05,0.04,0.09,0.05,0.14,0.05C8.3,15.06,8.39,14.62,8.32,14.18z"/>
		
			<linearGradient id="SVGID_00000116214222067799130490000000356831517862260132_" gradientUnits="userSpaceOnUse" x1="8.2877" y1="10.3337" x2="14.6716" y2="10.3337">
			<stop  offset="1.118836e-07" style="stop-color:#3F444B"/>
			<stop  offset="0.0308" style="stop-color:#464B52"/>
			<stop  offset="0.0764" style="stop-color:#5A5F65"/>
			<stop  offset="0.131" style="stop-color:#7B7F83"/>
			<stop  offset="0.1928" style="stop-color:#A8ABAE"/>
			<stop  offset="0.2597" style="stop-color:#E2E3E4"/>
			<stop  offset="0.2812" style="stop-color:#F6F7F7"/>
			<stop  offset="0.5605" style="stop-color:#8C8C8C"/>
			<stop  offset="0.7989" style="stop-color:#FFFFFF"/>
			<stop  offset="1" style="stop-color:#686969"/>
		</linearGradient>
		<path style="fill:url(#SVGID_00000116214222067799130490000000356831517862260132_);fill-opacity:0.84;" d="M14.6,5.36
			c-0.1-0.15-0.28-0.22-0.45-0.18c-0.16,0.04-0.29,0.17-0.31,0.37c-0.01,0.09-0.05,0.13-0.12,0.16c-0.18,0.08-0.35,0.16-0.53,0.23
			c-0.08,0.03-0.13,0.08-0.18,0.15c-0.29,0.38-0.57,0.77-0.86,1.15c-0.11,0.14-0.2,0.29-0.2,0.48c-0.01,0.28-0.04,0.55-0.08,0.83
			c-0.07,0.5-0.15,0.99-0.27,1.48c-0.15,0.61-0.39,1.19-0.72,1.73c-0.29,0.46-0.65,0.87-1.02,1.27c-0.1,0.11-0.21,0.2-0.32,0.31
			c0.01,0-0.07,0.05-0.08,0.07c-0.19,0.14-0.09,0.06-0.15,0.11c-0.01,0.01-0.02,0.02-0.03,0.03c-0.26,0.23-0.51,0.45-0.81,0.62
			c-0.04,0.02-0.09,0.04-0.15,0.03c0.07,0.44-0.02,0.88-0.03,1.32c0.05,0,0.09-0.02,0.14-0.06c0.37-0.27,0.75-0.54,1.1-0.84
			c0.7-0.59,1.34-1.23,1.89-1.96c0.58-0.77,0.96-1.64,1.19-2.57c0.29-1.14,0.41-2.31,0.53-3.48c0.02-0.23,0.12-0.37,0.32-0.46
			c0.13-0.06,0.26-0.11,0.38-0.18C13.93,5.91,14,5.9,14.09,5.95c0.17,0.09,0.35,0.04,0.48-0.12C14.69,5.68,14.71,5.52,14.6,5.36z
			 M14.25,5.77c-0.11,0-0.19-0.08-0.2-0.19c0-0.11,0.07-0.19,0.18-0.2c0.11,0,0.21,0.09,0.21,0.19C14.45,5.68,14.36,5.77,14.25,5.77
			z"/>
		
			<linearGradient id="SVGID_00000171715741171396602600000017738742670250894475_" gradientUnits="userSpaceOnUse" x1="8.4813" y1="5.0581" x2="14.0337" y2="5.0581">
			<stop  offset="1.118836e-07" style="stop-color:#3F444B"/>
			<stop  offset="0.0308" style="stop-color:#464B52"/>
			<stop  offset="0.0764" style="stop-color:#5A5F65"/>
			<stop  offset="0.131" style="stop-color:#7B7F83"/>
			<stop  offset="0.1928" style="stop-color:#A8ABAE"/>
			<stop  offset="0.2597" style="stop-color:#E2E3E4"/>
			<stop  offset="0.2812" style="stop-color:#F6F7F7"/>
			<stop  offset="0.5605" style="stop-color:#8C8C8C"/>
			<stop  offset="0.7989" style="stop-color:#FFFFFF"/>
			<stop  offset="1" style="stop-color:#686969"/>
		</linearGradient>
		<path style="fill:url(#SVGID_00000171715741171396602600000017738742670250894475_);fill-opacity:0.84;" d="M13.22,1.83
			c0.25,0,0.49,0,0.74,0c0.03,0,0.06-0.01,0.07,0.02c0.02,0.03-0.01,0.05-0.03,0.07c-0.41,0.6-0.82,1.2-1.21,1.81
			c-0.03,0.04-0.06,0.06-0.11,0.07c-0.16,0-0.33,0.03-0.49,0.02c-0.1-0.01-0.17,0.03-0.23,0.12c-0.38,0.55-0.77,1.1-1.16,1.66
			C10.2,6.45,9.6,7.33,9,8.2C8.99,8.22,8.97,8.23,8.96,8.25c-0.04,0.06-0.07,0.05-0.1,0C8.83,8.21,8.8,8.17,8.77,8.13
			c-0.09-0.15-0.16-0.3-0.26-0.44C8.49,7.66,8.47,7.62,8.5,7.57c0.28-0.42,0.56-0.84,0.85-1.26c0.23-0.35,0.47-0.69,0.71-1.04
			c0.37-0.55,0.74-1.09,1.12-1.64c0.38-0.55,0.75-1.1,1.12-1.66c0.07-0.11,0.15-0.17,0.29-0.16C12.79,1.84,13.01,1.83,13.22,1.83
			C13.22,1.83,13.22,1.83,13.22,1.83z"/>
		
			<linearGradient id="SVGID_00000149382178358604854090000006693946539906536602_" gradientUnits="userSpaceOnUse" x1="5.5283" y1="1.4727" x2="8.1514" y2="1.8987">
			<stop  offset="2.237672e-07" style="stop-color:#083DB3"/>
			<stop  offset="0.2812" style="stop-color:#6289D7"/>
			<stop  offset="0.5233" style="stop-color:#669DD3"/>
			<stop  offset="0.7169" style="stop-color:#6289D7"/>
			<stop  offset="1" style="stop-color:#083DB3"/>
		</linearGradient>
		<path style="fill:url(#SVGID_00000149382178358604854090000006693946539906536602_);fill-opacity:0.84;" d="M8.08,0.5
			c0,0-0.33,0.46-2.62,1.35l0.66,1.1c0,0,0.85-0.21,1.99-0.89c0,0,0,0,0,0l0-1.54C8.11,0.52,8.1,0.51,8.08,0.5z"/>
		
			<linearGradient id="SVGID_00000104673714683025277400000003879695001621847223_" gradientUnits="userSpaceOnUse" x1="8.1127" y1="1.9346" x2="11.3729" y2="1.6701">
			<stop  offset="1.118836e-07" style="stop-color:#3F444B"/>
			<stop  offset="0.0308" style="stop-color:#464B52"/>
			<stop  offset="0.0764" style="stop-color:#5A5F65"/>
			<stop  offset="0.131" style="stop-color:#7B7F83"/>
			<stop  offset="0.1928" style="stop-color:#A8ABAE"/>
			<stop  offset="0.2597" style="stop-color:#E2E3E4"/>
			<stop  offset="0.2812" style="stop-color:#F6F7F7"/>
			<stop  offset="0.5605" style="stop-color:#8C8C8C"/>
			<stop  offset="0.7989" style="stop-color:#FFFFFF"/>
			<stop  offset="1" style="stop-color:#686969"/>
		</linearGradient>
		<path style="fill:url(#SVGID_00000104673714683025277400000003879695001621847223_);fill-opacity:0.84;" d="M11.4,2l-0.74,1.14
			C9.38,2.83,8.2,2.12,8.12,2.07l0-1.54c0.45,0.31,0.89,0.56,1.29,0.75V0.51h0.69v1.07C10.88,1.9,11.4,2,11.4,2z"/>
	</g>
	<g>
		<g>
			
				<linearGradient id="SVGID_00000050622489504083549840000015205397072972819386_" gradientUnits="userSpaceOnUse" x1="7.1586" y1="3.2426" x2="7.9192" y2="3.2426">
				<stop  offset="1.118836e-07" style="stop-color:#17214C"/>
				<stop  offset="0.0619" style="stop-color:#182450"/>
				<stop  offset="0.1254" style="stop-color:#192D5C"/>
				<stop  offset="0.1896" style="stop-color:#1D3B71"/>
				<stop  offset="0.2538" style="stop-color:#21508D"/>
				<stop  offset="0.2812" style="stop-color:#235A9C"/>
				<stop  offset="0.5233" style="stop-color:#669DD3"/>
				<stop  offset="0.8287" style="stop-color:#1B4E85"/>
				<stop  offset="1" style="stop-color:#202B5D"/>
			</linearGradient>
			<path style="fill:url(#SVGID_00000050622489504083549840000015205397072972819386_);" d="M7.92,3.03c0-0.05-0.05-0.09-0.15-0.13
				H7.31c-0.1,0.03-0.15,0.08-0.15,0.13v0.43c0,0.05,0.05,0.09,0.15,0.13h0.46c0.1-0.03,0.15-0.08,0.15-0.13V3.03z"/>
			
				<linearGradient id="SVGID_00000049932304206364595690000003254657951137854373_" gradientUnits="userSpaceOnUse" x1="8.1892" y1="3.2426" x2="8.9498" y2="3.2426">
				<stop  offset="1.118836e-07" style="stop-color:#17214C"/>
				<stop  offset="0.0619" style="stop-color:#182450"/>
				<stop  offset="0.1254" style="stop-color:#192D5C"/>
				<stop  offset="0.1896" style="stop-color:#1D3B71"/>
				<stop  offset="0.2538" style="stop-color:#21508D"/>
				<stop  offset="0.2812" style="stop-color:#235A9C"/>
				<stop  offset="0.5233" style="stop-color:#669DD3"/>
				<stop  offset="0.8287" style="stop-color:#1B4E85"/>
				<stop  offset="1" style="stop-color:#202B5D"/>
			</linearGradient>
			<path style="fill:url(#SVGID_00000049932304206364595690000003254657951137854373_);" d="M8.95,3.03c0-0.05-0.05-0.09-0.15-0.13
				H8.34c-0.1,0.03-0.15,0.08-0.15,0.13v0.43c0,0.05,0.05,0.09,0.15,0.13H8.8c0.1-0.03,0.15-0.08,0.15-0.13V3.03z"/>
			
				<linearGradient id="SVGID_00000087393566833057429910000017406845683920239501_" gradientUnits="userSpaceOnUse" x1="7.1586" y1="4.1587" x2="7.9192" y2="4.1587">
				<stop  offset="1.118836e-07" style="stop-color:#17214C"/>
				<stop  offset="0.0619" style="stop-color:#182450"/>
				<stop  offset="0.1254" style="stop-color:#192D5C"/>
				<stop  offset="0.1896" style="stop-color:#1D3B71"/>
				<stop  offset="0.2538" style="stop-color:#21508D"/>
				<stop  offset="0.2812" style="stop-color:#235A9C"/>
				<stop  offset="0.5233" style="stop-color:#669DD3"/>
				<stop  offset="0.8287" style="stop-color:#1B4E85"/>
				<stop  offset="1" style="stop-color:#202B5D"/>
			</linearGradient>
			<path style="fill:url(#SVGID_00000087393566833057429910000017406845683920239501_);" d="M7.92,3.94c0-0.05-0.05-0.09-0.15-0.13
				H7.31c-0.1,0.03-0.15,0.08-0.15,0.13v0.43c0,0.05,0.05,0.09,0.15,0.13h0.46c0.1-0.03,0.15-0.08,0.15-0.13V3.94z"/>
			
				<linearGradient id="SVGID_00000046329552686846599930000007163774735348843199_" gradientUnits="userSpaceOnUse" x1="8.1892" y1="4.1587" x2="8.9498" y2="4.1587">
				<stop  offset="1.118836e-07" style="stop-color:#17214C"/>
				<stop  offset="0.0619" style="stop-color:#182450"/>
				<stop  offset="0.1254" style="stop-color:#192D5C"/>
				<stop  offset="0.1896" style="stop-color:#1D3B71"/>
				<stop  offset="0.2538" style="stop-color:#21508D"/>
				<stop  offset="0.2812" style="stop-color:#235A9C"/>
				<stop  offset="0.5233" style="stop-color:#669DD3"/>
				<stop  offset="0.8287" style="stop-color:#1B4E85"/>
				<stop  offset="1" style="stop-color:#202B5D"/>
			</linearGradient>
			<path style="fill:url(#SVGID_00000046329552686846599930000007163774735348843199_);" d="M8.95,3.94c0-0.05-0.05-0.09-0.15-0.13
				H8.34c-0.1,0.03-0.15,0.08-0.15,0.13v0.43c0,0.05,0.05,0.09,0.15,0.13H8.8c0.1-0.03,0.15-0.08,0.15-0.13V3.94z"/>
		</g>
	</g>
	
		<linearGradient id="SVGID_00000153676433136746715990000012145590208876243072_" gradientUnits="userSpaceOnUse" x1="2.8335" y1="7.6809" x2="15.1766" y2="3.0251">
		<stop  offset="0.0438" style="stop-color:#083DB3"/>
		<stop  offset="0.0959" style="stop-color:#0B41B7"/>
		<stop  offset="0.1492" style="stop-color:#154DC2"/>
		<stop  offset="0.2029" style="stop-color:#2662D4"/>
		<stop  offset="0.2427" style="stop-color:#3676E6"/>
		<stop  offset="0.3236" style="stop-color:#669DD3"/>
		<stop  offset="0.498" style="stop-color:#6289D7"/>
		<stop  offset="0.5986" style="stop-color:#083DB3"/>
		<stop  offset="0.7754" style="stop-color:#686969"/>
		<stop  offset="1" style="stop-color:#8C8C8C"/>
	</linearGradient>
	<path style="fill:url(#SVGID_00000153676433136746715990000012145590208876243072_);fill-opacity:0.84;" d="M3.26,1.81
		c0.5,0,1.01,0,1.51,0c0.07,0,0.12,0.02,0.16,0.09c0.42,0.73,0.84,1.45,1.26,2.18c0.63,1.09,1.27,2.18,1.9,3.26
		c0.26,0.44,0.52,0.89,0.78,1.33C8.93,8.76,8.94,8.76,9,8.67c0.55-0.78,1.1-1.57,1.65-2.35c0.43-0.6,0.85-1.21,1.28-1.81
		c0.07-0.1,0.14-0.2,0.21-0.3c0.03-0.05,0.07-0.07,0.13-0.07c0.17-0.01,0.35-0.02,0.52-0.02c0.09,0,0.15-0.03,0.2-0.11
		c0.47-0.77,0.94-1.53,1.41-2.29c0.04-0.06,0.02-0.1-0.01-0.15c-0.1-0.19-0.02-0.43,0.18-0.51c0.19-0.08,0.41,0,0.49,0.2
		c0.09,0.21-0.05,0.46-0.27,0.5c-0.08,0.01-0.13,0.05-0.18,0.12c-0.49,0.81-0.98,1.61-1.47,2.42c-0.04,0.07-0.09,0.1-0.16,0.1
		c-0.17,0.01-0.35,0.03-0.52,0.04c-0.06,0-0.1,0.02-0.13,0.07c-0.31,0.45-0.63,0.91-0.95,1.36c-0.37,0.53-0.73,1.05-1.1,1.58
		c-0.01,0.01-0.02,0.03-0.03,0.04c-0.01,0.02-0.04,0.04-0.02,0.07c0.01,0.03,0.05,0.02,0.07,0.02c0.37,0.01,0.37,0.01,0.59-0.29
		c0.58-0.8,1.16-1.59,1.73-2.39c0.06-0.09,0.13-0.13,0.25-0.13c0.26,0,0.52-0.03,0.78-0.04c0.07,0,0.13-0.04,0.17-0.1
		c0.29-0.44,0.57-0.89,0.86-1.33c0.03-0.05,0.02-0.08,0-0.13c-0.1-0.19-0.03-0.42,0.16-0.52c0.19-0.09,0.41-0.01,0.5,0.19
		c0.11,0.26-0.08,0.47-0.29,0.51c-0.07,0.01-0.12,0.04-0.16,0.1c-0.22,0.35-0.44,0.7-0.66,1.04c-0.09,0.14-0.18,0.27-0.26,0.41
		c-0.03,0.05-0.07,0.08-0.14,0.08c-0.28,0.02-0.56,0.04-0.84,0.05c-0.07,0-0.11,0.03-0.15,0.08c-0.26,0.37-0.53,0.74-0.79,1.11
		c-0.37,0.52-0.74,1.03-1.11,1.55C10.49,8.41,10.05,9.06,9.6,9.7c-0.52,0.75-1.04,1.5-1.56,2.25C8.02,11.96,8.01,11.98,8,12
		c-0.07,0.11-0.08,0.11-0.15,0c-0.42-0.68-0.84-1.37-1.26-2.05C5.92,8.85,5.24,7.76,4.57,6.66C3.99,5.72,3.41,4.78,2.83,3.83
		C2.46,3.22,2.08,2.61,1.71,2C1.67,1.95,1.6,1.89,1.63,1.83c0.03-0.05,0.11-0.02,0.17-0.02C2.29,1.81,2.78,1.81,3.26,1.81
		C3.26,1.81,3.26,1.81,3.26,1.81z M15.18,2.98c0-0.1-0.09-0.19-0.19-0.18c-0.1,0-0.17,0.08-0.17,0.18c0,0.1,0.09,0.19,0.19,0.19
		C15.1,3.16,15.18,3.08,15.18,2.98z M14.7,1.22c-0.11,0-0.18,0.07-0.18,0.17c0,0.1,0.09,0.19,0.2,0.19c0.09,0,0.17-0.08,0.16-0.17
		C14.88,1.28,14.82,1.22,14.7,1.22z"/>
	
		<linearGradient id="SVGID_00000073002005659360236220000004420582492186505916_" gradientUnits="userSpaceOnUse" x1="3.1763" y1="10.6684" x2="8.3442" y2="10.6684">
		<stop  offset="2.237672e-07" style="stop-color:#083DB3"/>
		<stop  offset="0.2812" style="stop-color:#6289D7"/>
		<stop  offset="0.5233" style="stop-color:#669DD3"/>
		<stop  offset="0.7169" style="stop-color:#6289D7"/>
		<stop  offset="1" style="stop-color:#083DB3"/>
	</linearGradient>
	<path style="fill:url(#SVGID_00000073002005659360236220000004420582492186505916_);fill-opacity:0.84;" d="M8.32,14.18
		c-0.04,0-0.08-0.02-0.12-0.04c-0.76-0.56-1.47-1.27-2.09-1.97c-0.5-0.57-0.88-1.21-1.11-1.93C4.79,9.57,4.67,8.88,4.57,8.19
		C4.55,8.08,4.56,7.97,4.5,7.87C4.09,7.21,3.68,6.55,3.26,5.89C3.25,5.87,3.24,5.83,3.2,5.84C3.17,5.85,3.18,5.89,3.18,5.91
		c0.04,0.41,0.07,0.82,0.11,1.23c0.07,0.65,0.16,1.31,0.28,1.96c0.12,0.68,0.27,1.35,0.52,1.99c0.33,0.83,0.86,1.54,1.47,2.18
		c0.78,0.82,1.66,1.53,2.58,2.18c0.05,0.04,0.09,0.05,0.14,0.05C8.3,15.06,8.39,14.62,8.32,14.18z"/>
	
		<linearGradient id="SVGID_00000022534461767284656350000009471760769665690534_" gradientUnits="userSpaceOnUse" x1="5.5283" y1="1.4727" x2="8.1514" y2="1.8987">
		<stop  offset="2.237672e-07" style="stop-color:#083DB3"/>
		<stop  offset="0.2812" style="stop-color:#6289D7"/>
		<stop  offset="0.5233" style="stop-color:#669DD3"/>
		<stop  offset="0.7169" style="stop-color:#6289D7"/>
		<stop  offset="1" style="stop-color:#083DB3"/>
	</linearGradient>
	<path style="fill:url(#SVGID_00000022534461767284656350000009471760769665690534_);fill-opacity:0.84;" d="M8.08,0.5
		c0,0-0.33,0.46-2.62,1.35l0.66,1.1c0,0,0.85-0.21,1.99-0.89c0,0,0,0,0,0l0-1.54C8.11,0.52,8.1,0.51,8.08,0.5z"/>
</g>
</svg>
